# xmcd
# 
# Track frame offsets:
#     150
#     22005
#     44428
#     67519
#     86463
#     113203
#     135166
#     154347
#     182643
# 
# Disc length: 2888
# 
# Revision: 1
# Processed by: cddbd v1.5.2PL0 Copyright (c) Steve Scherf et al.
# Submitted via: fre:ac v1.0.17
# 
DISCID=680b4609
DTITLE=Next Jazz - Next Generation North Sea Jazz Festival Cd3/5
DYEAR=2011
DGENRE=Jazz
TTITLE0=Nicola Conte - Like leaves in the wind
TTITLE1=Melody Gardot - Who will comfort me
TTITLE2=Tigran - A Fable
TTITLE3=Schradinova - Dogs bark
TTITLE4=Till Brönner - River Man
TTITLE5=Beady Belle - Diamond in the rough
TTITLE6=Richard Bona - Yara's Blues
TTITLE7=Miguel Zenón - Oyelo
TTITLE8=Kurt Rosenwinkel - The Cross
EXTD=YEAR: 2011
EXTT0=
EXTT1=
EXTT2=
EXTT3=
EXTT4=
EXTT5=
EXTT6=
EXTT7=
EXTT8=
PLAYORDER=
